<svg xmlns="http://www.w3.org/2000/svg" viewBox="0 0 1024 1024" fill="currentColor">
  <path d="M471.095 512c0 22.592 18.314 40.905 40.905 40.905 22.592 0 40.905-18.314 40.905-40.905 0-22.592-18.314-40.905-40.905-40.905-22.592 0-40.905 18.314-40.905 40.905z"></path>
  <path d="M962 512c0-49.005-59.49-92.88-153.428-122.827 45.18-87.593 56.272-160.695 21.645-195.368-34.695-34.65-107.775-23.558-195.39 21.623-29.948-93.983-73.822-153.428-122.827-153.428-49.05 0-92.903 59.445-122.827 153.428-87.593-45.18-160.74-56.272-195.412-21.623-34.65 34.672-23.512 107.775 21.69 195.367-94.005 29.948-153.45 73.822-153.45 122.827s59.445 92.88 153.45 122.827c-45.202 87.615-56.317 160.695-21.69 195.39 34.695 34.627 107.82 23.535 195.412-21.623 29.925 93.915 73.777 153.405 122.827 153.405 49.005 0 92.88-59.49 122.827-153.405 87.615 45.158 160.695 56.25 195.39 21.623 34.627-34.695 23.535-107.775-21.645-195.39 93.938-29.947 153.428-73.822 153.428-122.827zM102.905 512c0-35.528 50.355-67.455 130.702-89.865 17.145 29.115 37.687 59.332 61.222 90.09-23.4 30.488-44.167 60.682-61.222 89.64-80.348-22.41-130.702-54.337-130.702-89.865z"></path>
  <!-- 可以继续保留你原 SVG 中其他 <path> 内容 -->
</svg>
